<svg width="1280" height="640" viewBox="0 0 1280 640" fill="none" xmlns="http://www.w3.org/2000/svg">
  <rect width="1280" height="640" fill="#F5F7FB"/>
  <rect x="52" y="52" width="1176" height="536" rx="30" fill="white" stroke="#D9E2EC"/>
  <rect x="52" y="52" width="292" height="536" rx="30" fill="#101828"/>
  <g transform="translate(92 88)">
    <rect width="96" height="96" rx="22" fill="#0B1220"/>
    <path d="M24.75 27.75C24.75 20.709 30.459 15 37.5 15H60C67.041 15 72.75 20.709 72.75 27.75V47.25C72.75 54.291 67.041 60 60 60H51.3L37.05 75.15C34.676 77.676 30.375 75.995 30.375 72.525V61.5C22.128 59.561 16.125 52.186 16.125 43.5V27.75Z" fill="url(#coverBubble)"/>
    <path d="M27.75 38.25C33.15 27.9 37.65 27.9 42 38.25L47.4 51.6L53.55 24.75L60.45 51.6L66 38.25C70.5 27.9 75 27.9 79.5 38.25" stroke="white" stroke-width="6.75" stroke-linecap="round" stroke-linejoin="round"/>
    <path d="M21.75 49.8C29.7 59.4 40.95 64.5 53.1 64.5C63.15 64.5 72.45 60.9 79.65 54.9" stroke="#7DD3FC" stroke-width="3.6" stroke-linecap="round" opacity=".55"/>
    <circle cx="72.75" cy="72" r="11.25" fill="#10B981"/>
    <circle cx="72.75" cy="72" r="3.9" fill="white"/>
  </g>
  <text x="204" y="146" font-family="Inter, Arial, sans-serif" font-size="34" font-weight="800" fill="white">Whisper</text>
  <text x="92" y="234" font-family="Inter, Arial, sans-serif" font-size="15" font-weight="700" fill="#94A3B8">CENTRAL</text>
  <rect x="92" y="254" width="208" height="44" rx="8" fill="#1F2937"/>
  <rect x="92" y="318" width="208" height="44" rx="8" fill="#0EA5E9"/>
  <rect x="92" y="382" width="208" height="44" rx="8" fill="#1F2937"/>
  <rect x="92" y="446" width="146" height="44" rx="8" fill="#1F2937"/>

  <g transform="translate(408 92)">
    <rect width="192" height="192" rx="42" fill="#101828"/>
    <path d="M49.5 55.5C49.5 41.418 60.918 30 75 30H120C134.082 30 145.5 41.418 145.5 55.5V94.5C145.5 108.582 134.082 120 120 120H102.6L74.1 150.3C69.351 155.352 60.75 151.99 60.75 145.05V123C44.256 119.121 32.25 104.371 32.25 87V55.5Z" fill="url(#coverBubble)"/>
    <path d="M55.5 76.5C66.3 55.8 75.3 55.8 84 76.5L94.8 103.2L107.1 49.5L120.9 103.2L132 76.5C141 55.8 150 55.8 159 76.5" stroke="white" stroke-width="13.5" stroke-linecap="round" stroke-linejoin="round"/>
    <path d="M43.5 99.6C59.4 118.8 81.9 129 106.2 129C126.3 129 144.9 121.8 159.3 109.8" stroke="#7DD3FC" stroke-width="7.2" stroke-linecap="round" opacity=".55"/>
    <circle cx="145.5" cy="144" r="22.5" fill="#10B981"/>
    <circle cx="145.5" cy="144" r="7.8" fill="white"/>
  </g>

  <text x="636" y="150" font-family="Inter, Arial, sans-serif" font-size="56" font-weight="850" fill="#101828">Whisper</text>
  <text x="636" y="199" font-family="Inter, Arial, sans-serif" font-size="24" font-weight="600" fill="#0369A1">SaaS de atendimento em tempo real</text>
  <text x="636" y="240" font-family="Inter, Arial, sans-serif" font-size="18" fill="#475467">Golang, WebSocket, PostgreSQL, Redis, React e Tailwind CSS.</text>

  <rect x="408" y="334" width="344" height="166" rx="14" fill="#F8FAFC" stroke="#D9E2EC"/>
  <rect x="780" y="334" width="360" height="166" rx="14" fill="#101828"/>
  <rect x="440" y="374" width="130" height="18" rx="6" fill="#CBD5E1"/>
  <rect x="440" y="414" width="252" height="24" rx="8" fill="#0EA5E9"/>
  <rect x="440" y="454" width="204" height="24" rx="8" fill="#10B981"/>
  <circle cx="826" cy="384" r="18" fill="#0EA5E9"/>
  <rect x="858" y="370" width="214" height="28" rx="8" fill="#1F2937"/>
  <rect x="826" y="424" width="270" height="22" rx="8" fill="#1F2937"/>
  <rect x="826" y="460" width="196" height="22" rx="8" fill="#1F2937"/>

  <defs>
    <linearGradient id="coverBubble" x1="16" y1="15" x2="80" y2="76" gradientUnits="userSpaceOnUse">
      <stop stop-color="#38BDF8"/>
      <stop offset=".55" stop-color="#0EA5E9"/>
      <stop offset="1" stop-color="#0369A1"/>
    </linearGradient>
  </defs>
</svg>
