<svg width="64" height="64" viewBox="0 0 64 64" fill="none" xmlns="http://www.w3.org/2000/svg">
  <rect width="64" height="64" rx="14" fill="#101828"/>
  <path d="M11.5 18C11.5 12.477 15.977 8 21.5 8H42.5C48.023 8 52.5 12.477 52.5 18V32.5C52.5 38.023 48.023 42.5 42.5 42.5H34.875L24.9 52.85C23.025 54.795 19.75 53.468 19.75 50.768V42.5C15.194 41.679 11.5 37.567 11.5 32.5V18Z" fill="url(#bubble)"/>
  <path d="M18 22.75L24.25 37L32 21.5L39.75 37L46 22.75" stroke="white" stroke-width="5.5" stroke-linecap="round" stroke-linejoin="round"/>
  <path d="M19.5 22.75L24.75 34.75L32 20.25L39.25 34.75L44.5 22.75" stroke="#BAE6FD" stroke-width="1.75" stroke-linecap="round" stroke-linejoin="round" opacity=".34"/>
  <circle cx="47" cy="45.25" r="5" fill="#10B981"/>
  <circle cx="47" cy="45.25" r="1.75" fill="white"/>
  <defs>
    <linearGradient id="bubble" x1="11.5" y1="8" x2="49.5" y2="50.5" gradientUnits="userSpaceOnUse">
      <stop stop-color="#38BDF8"/>
      <stop offset=".58" stop-color="#0EA5E9"/>
      <stop offset="1" stop-color="#0369A1"/>
    </linearGradient>
  </defs>
</svg>
